<!-- Generator: Adobe Illustrator 19.2.1, SVG Export Plug-In  -->
<svg version="1.1"
	 xmlns="http://www.w3.org/2000/svg" xmlns:xlink="http://www.w3.org/1999/xlink" xmlns:a="http://ns.adobe.com/AdobeSVGViewerExtensions/3.0/"
	 x="0px" y="0px" width="263.9px" height="103.9px" viewBox="0 0 263.9 103.9" style="enable-background:new 0 0 263.9 103.9;"
	 xml:space="preserve">
<style type="text/css">
	.st0{fill:url(#SVGID_1_);}
	.st1{fill:url(#SVGID_2_);}
	.st2{fill:url(#SVGID_3_);}
	.st3{fill:url(#SVGID_4_);}
	.st4{fill:url(#SVGID_5_);}
	.st5{fill:url(#SVGID_6_);}
	.st6{fill:url(#SVGID_7_);}
	.st7{fill:url(#SVGID_8_);}
	.st8{fill:url(#SVGID_9_);}
	.st9{fill:url(#SVGID_10_);}
	.st10{fill:url(#SVGID_11_);}
	.st11{fill:url(#SVGID_12_);}
	.st12{fill:#FFFFFF;}
	.st13{fill:url(#SVGID_13_);}
	.st14{fill:url(#SVGID_14_);}
	.st15{fill:url(#SVGID_15_);}
	.st16{fill:url(#SVGID_16_);}
	.st17{fill:url(#SVGID_17_);}
	.st18{fill:url(#SVGID_18_);}
	.st19{fill:url(#SVGID_19_);}
	.st20{fill:url(#SVGID_20_);}
	.st21{fill:url(#SVGID_21_);}
	.st22{fill:url(#SVGID_22_);}
	.st23{fill:url(#SVGID_23_);}
	.st24{fill:url(#SVGID_24_);}
</style>
<defs>
</defs>
<g>

		<linearGradient id="SVGID_1_" gradientUnits="userSpaceOnUse" x1="-19.1756" y1="-344.8908" x2="283.882" y2="-344.8908" gradientTransform="matrix(0.6901 0 0 0.6901 62.9294 286.0175)">
		<stop  offset="0" style="stop-color:#FFFFFF"/>
		<stop  offset="0.5169" style="stop-color:#69C3ED"/>
		<stop  offset="0.95" style="stop-color:#5DBDEA"/>
	</linearGradient>
	<path class="st0" d="M189.2,2.4c-0.4,0.2,0.2,0.3,1.4,0.4c9.4,0.3,19,1.7,27.4,4.3c9.5,3,18.1,7.9,23,14.7c5.9,8.2,10,21.7,0.8,34
		c-5.6,7.4-28.2,22.2-62.4,27.8c-45.8,6.1-73.9,0.3-89.4,1.7c-4.1,0.4-28.7-1.4-29.9-0.2c-3.7,0.4-2.6-0.9-6.7,2.4
		c-1.7,1.4-6.5,4-1.3,3.9c36.9,0.4,104.4,10,158.7-2.9c17.9-3.9,33.9-15.4,41.4-24.9c12-15.2,5.8-30.9-1-40.7
		c-5.5-8-15.1-13.7-25.7-17.2c-9.2-3-19.5-4.6-29.7-5.1c-1.3-0.1-2.7,0.1-3.1,0.2C191.5,1.4,190.3,1.9,189.2,2.4z"/>
	<linearGradient id="SVGID_2_" gradientUnits="userSpaceOnUse" x1="95.4274" y1="48.0083" x2="258.1789" y2="48.0083">
		<stop  offset="0" style="stop-color:#FFFFFF;stop-opacity:0"/>
		<stop  offset="1" style="stop-color:#B2AEAD"/>
	</linearGradient>
	<path class="st1" d="M201,6.7c-0.4,0.2,0.2,0.3,1.3,0.4c8.6,0.3,17.3,1.7,24.7,4.2c8.3,2.9,15.5,7.5,19.2,13.7
		c4.3,7.3,3.9,17.3-4.5,27.4c-20.2,29.8-110,21.2-132.3,22.8c-2.9,0.2-5.7,0.9-6.5,1.8c-2,2.4-4.3,5-7,7.6c-2.4,2.6,3,3.7,7.7,4.6
		c13.5,1.4,22.7,4.2,82.7-1.1c45.7-5.6,56.1-21.7,62.4-28.9c10.6-12.3,11.3-24.5,6.4-33.2c-4.2-7.3-12.2-12.6-21.4-15.9
		C225.7,7,216.3,5.4,207,5c-1.2-0.1-2.4,0.1-2.9,0.2C203.1,5.7,202.1,6.2,201,6.7z"/>
	<linearGradient id="SVGID_3_" gradientUnits="userSpaceOnUse" x1="204.6034" y1="53.0811" x2="205.5377" y2="18.0285">
		<stop  offset="0" style="stop-color:#FFFFFF;stop-opacity:0"/>
		<stop  offset="0.5515" style="stop-color:#2F86C0"/>
		<stop  offset="1" style="stop-color:#4CADDE"/>
	</linearGradient>
	<path class="st2" d="M184.8,9.5c-0.3,0.1,0.1,0.3,0.8,0.3c12,1,23.7,4.4,30,10.6c7.5,7.4,6.7,20.1-8.7,30.5
		c-1.1,0.7-1.8,1.6-1.5,1.9c0.8,0.9,1.5,1.9,2.2,2.9c0.3,0.4,1.6,0.1,2.9-0.7c18.1-12,19.1-26.5,10.8-34.9
		c-6.8-6.8-19.4-10.6-32.2-11.7c-0.8-0.1-1.7,0-2,0.1C186.3,8.8,185.5,9.2,184.8,9.5z"/>
	<linearGradient id="SVGID_4_" gradientUnits="userSpaceOnUse" x1="162.182" y1="20.2468" x2="222.7842" y2="20.2468">
		<stop  offset="0" style="stop-color:#3E4796"/>
		<stop  offset="0.1333" style="stop-color:#3E4796"/>
		<stop  offset="1" style="stop-color:#FFFFFF"/>
	</linearGradient>
	<path class="st3" d="M162.2,11c-0.2,0.1,0.2,0.2,1,0.1c11.3-1.1,23.2-0.9,33,1.5c11,2.7,20.1,8.7,20.8,17.1
		c0.1,0.6,0.4,1.1,0.9,1.2c1.3,0.2,2.6,0.4,3.9,0.6c0.5,0.1,1-0.4,0.9-1.1c-0.7-9.4-10.7-16-22.5-19c-10.3-2.6-22.9-3-34.8-1.9
		c-0.7,0.1-1.5,0.2-1.7,0.4C163.2,10.3,162.7,10.7,162.2,11z"/>
	<linearGradient id="SVGID_5_" gradientUnits="userSpaceOnUse" x1="181.9615" y1="35.0902" x2="218.2244" y2="35.0902">
		<stop  offset="0" style="stop-color:#FFFFFF"/>
		<stop  offset="1" style="stop-color:#6DC5ED"/>
	</linearGradient>
	<path class="st4" d="M191.4,12.9c-0.3,0.1,0,0.3,0.6,0.5c10.5,2.3,19.3,7.6,20.6,15.1c0.7,4.2-1,9.2-5.8,13.9
		c-5,5-13.4,9.5-22.8,11.5c-1.2,0.2-2.1,0.7-2.1,1c0.1,0.9,0.2,1.9,0.2,2.9c0,0.4,1.2,0.6,2.6,0.2c11-2.3,20.8-7.6,26.7-13.4
		c5.4-5.4,7.4-11,6.6-15.8c-1.4-8.4-10.9-14.1-22.2-16.7c-0.7-0.2-1.5-0.2-1.9-0.1C193.1,12.3,192.3,12.6,191.4,12.9z"/>
	<g>
		<linearGradient id="SVGID_6_" gradientUnits="userSpaceOnUse" x1="191.392" y1="34.5502" x2="224.9246" y2="34.5502">
			<stop  offset="0" style="stop-color:#FFFFFF;stop-opacity:0"/>
			<stop  offset="1" style="stop-color:#6DC5ED"/>
		</linearGradient>
		<path class="st5" d="M191.5,10.6c-0.3,0.1,0,0.3,0.7,0.4c11.2,1.8,21.5,6.3,25.4,13.4c4.7,8.4-0.8,21.6-19,30
			c-1.2,0.6-2.2,1.3-2,1.7c0.4,1,0.8,2,1.2,3.1c0.1,0.4,1.5,0.3,3-0.4c21.3-9.7,27.6-24.8,22.4-34.4c-4.3-7.8-15.3-12.8-27.3-14.8
			c-0.7-0.1-1.6-0.1-1.9,0C193.1,10,192.3,10.3,191.5,10.6z"/>
		<linearGradient id="SVGID_7_" gradientUnits="userSpaceOnUse" x1="169.7757" y1="22.9107" x2="221.5794" y2="22.9107">
			<stop  offset="0" style="stop-color:#6DC5ED"/>
			<stop  offset="0.1317" style="stop-color:#7BC9EF"/>
			<stop  offset="0.3743" style="stop-color:#9FD6F3"/>
			<stop  offset="0.6982" style="stop-color:#D3ECF9"/>
			<stop  offset="1" style="stop-color:#FFFFFF"/>
		</linearGradient>
		<path class="st6" d="M169.8,10.6c-0.2,0.1,0.2,0.2,0.9,0.2c11-0.5,22.2,0.7,30.8,3.9c9.7,3.7,16.5,10.8,14.2,19.6
			c-0.2,0.6,0,1.2,0.5,1.3c1.2,0.3,2.4,0.6,3.6,0.9c0.5,0.1,1.1-0.3,1.3-1.1c2.7-9.9-4.8-17.7-15.3-21.8c-9.1-3.5-21-4.8-32.5-4.4
			c-0.7,0-1.5,0.2-1.7,0.3C170.9,10,170.4,10.3,169.8,10.6z"/>
	</g>
	<g>
		<linearGradient id="SVGID_8_" gradientUnits="userSpaceOnUse" x1="131.1838" y1="52.0626" x2="263.8805" y2="52.0626">
			<stop  offset="0" style="stop-color:#FFFFFF"/>
			<stop  offset="0.703" style="stop-color:#004A99"/>
			<stop  offset="0.7382" style="stop-color:#00529D"/>
			<stop  offset="0.8031" style="stop-color:#1865AA"/>
			<stop  offset="0.8905" style="stop-color:#3885C2"/>
			<stop  offset="0.9961" style="stop-color:#56B5E5"/>
			<stop  offset="1" style="stop-color:#58B7E6"/>
		</linearGradient>
		<path class="st7" d="M140.6,103.9c-4.3,0-10.4-0.6-9.3-2.4c2.9-4.3,3.2-4.7,5.4-6.7c0.8-1.4,15.4-1.8,30.5-4.4
			c24-4.8,39.9-5.4,65.3-22.2c9.5-7.8,15.4-15.9,17.4-23.2c3.3-11.9-2.6-21.9-12.3-28.6C222.7,6.1,197.1,2.1,174.7,2.3
			c-1.4,0-2.1-0.1-1.7-0.3c1.2-0.5,2.3-1,3.5-1.4c0.5-0.2,2-0.3,3.5-0.4c11.6,0,23.6,0.9,34.8,3.1c12.6,2.5,24.9,6.9,34,13.4
			c11.1,8,15.3,15.1,15.1,30.8c0.6,12.9-9,27.2-22.1,34.5C241.8,82.1,215,100.9,140.6,103.9z"/>
	</g>

		<radialGradient id="SVGID_9_" cx="-82.566" cy="361.2162" r="45.9129" gradientTransform="matrix(0.849 0 0 0.9725 264.5825 -335.2054)" gradientUnits="userSpaceOnUse">
		<stop  offset="0" style="stop-color:#3D3D3D"/>
		<stop  offset="1" style="stop-color:#3E3D37"/>
	</radialGradient>
	<path class="st8" d="M140.6,10.3c-0.2,0.2,0.5,0.1,1.5-0.1C157.7,6.3,175.7,4.1,192,5c9.2,0.6,18.4,2.2,26.2,5.1
		c8.9,3.4,16.5,8.7,20,15.8c0.5,1,1.5,2,2.3,2.1c2.2,0.4,4.5,0.8,6.8,1.3c0.9,0.2,1.3-0.7,0.8-1.9c-3.9-8.4-12.5-14.6-22.4-18.5
		c-8.6-3.4-18.6-5.2-28.5-6c-17.4-1.2-36.6,1-53,4.9c-1,0.3-2,0.6-2.2,0.8C141.5,9.3,141.1,9.8,140.6,10.3z"/>

		<linearGradient id="SVGID_10_" gradientUnits="userSpaceOnUse" x1="0" y1="227.7741" x2="242.2569" y2="227.7741" gradientTransform="matrix(1 0 0 1.1454 0 -216.1991)">
		<stop  offset="0" style="stop-color:#FFFFFF;stop-opacity:0"/>
		<stop  offset="5.010351e-02" style="stop-color:#FBFCFE;stop-opacity:9.394414e-02"/>
		<stop  offset="0.1211" style="stop-color:#ECEFF8;stop-opacity:0.2272"/>
		<stop  offset="0.2047" style="stop-color:#D0D7EC;stop-opacity:0.3839"/>
		<stop  offset="0.2979" style="stop-color:#AAB6DA;stop-opacity:0.5585"/>
		<stop  offset="0.3989" style="stop-color:#7B8FC3;stop-opacity:0.7479"/>
		<stop  offset="0.505" style="stop-color:#3466AB;stop-opacity:0.9469"/>
		<stop  offset="0.5333" style="stop-color:#005CA5"/>
		<stop  offset="0.6052" style="stop-color:#005EA7"/>
		<stop  offset="0.6829" style="stop-color:#0865AC"/>
		<stop  offset="0.7632" style="stop-color:#2172B5"/>
		<stop  offset="0.8453" style="stop-color:#3484C2"/>
		<stop  offset="0.928" style="stop-color:#469DD4"/>
		<stop  offset="1" style="stop-color:#58B7E6"/>
	</linearGradient>
	<path class="st9" d="M185.1,6.1c-0.4,0.2,0.2,0.3,1.3,0.4c8.6,0.3,17.3,1.6,24.7,4.1c8.3,2.8,15.5,7.2,19.2,13.2
		c4.3,7,3.9,16.6-4.5,26.3C205.7,78.7,101.6,71,79.3,72.5c-2.9,0.2-38.8-0.1-42.6-0.3C-4.9,70.4-2.1,77.9,2.5,82
		c4.5,4.1,67.9,2.2,71.6,2.1c14.2-0.3,94.9,4.9,130.5-8.8c15.7-7.3,21.9-11.9,28.2-19c10.6-11.9,11.3-23.5,6.4-31.9
		c-4.2-7-12.2-12.1-21.4-15.3c-8.1-2.8-17.5-4.3-26.8-4.7c-1.2-0.1-2.4,0.1-2.9,0.2C187.2,5.2,186.1,5.7,185.1,6.1z"/>

		<radialGradient id="SVGID_11_" cx="-74.0229" cy="360.0674" r="51.1406" gradientTransform="matrix(0.849 0 0 0.9725 264.5825 -335.2054)" gradientUnits="userSpaceOnUse">
		<stop  offset="0" style="stop-color:#58B7E6"/>
		<stop  offset="0.4891" style="stop-color:#307BBA"/>
		<stop  offset="0.8357" style="stop-color:#0058A1"/>
		<stop  offset="1" style="stop-color:#004A99"/>
	</radialGradient>
	<path class="st10" d="M141.8,7.8c-0.2,0.2,0.5,0.1,1.6-0.1c16.5-3.9,35.7-6.4,53.4-5.3c10.1,0.6,20.3,2.3,29.2,5.5
		c10.2,3.7,19.4,9.6,24.2,17.8c0.7,1.2,1.9,2.3,2.9,2.5c2.5,0.5,5.1,1.1,7.8,1.7c1.1,0.2,1.4-0.8,0.6-2.2
		C255.9,18,245.5,11.1,234,6.8c-9.8-3.7-20.9-5.7-31.8-6.4c-18.9-1.3-39.3,1.1-56.7,5.1c-1.1,0.3-2.1,0.6-2.4,0.8
		C142.7,6.8,142.2,7.3,141.8,7.8z"/>
	<linearGradient id="SVGID_12_" gradientUnits="userSpaceOnUse" x1="213.4897" y1="9.4425" x2="198.3473" y2="94.4084">
		<stop  offset="0" style="stop-color:#1F6FB3"/>
		<stop  offset="0.1271" style="stop-color:#3A8AC7"/>
		<stop  offset="0.2469" style="stop-color:#49A0D6"/>
		<stop  offset="0.346" style="stop-color:#52ADDF"/>
		<stop  offset="0.4121" style="stop-color:#56B2E3"/>
		<stop  offset="0.4512" style="stop-color:#60B5E4;stop-opacity:0.8888"/>
		<stop  offset="0.5106" style="stop-color:#78BEE8;stop-opacity:0.7199"/>
		<stop  offset="0.5829" style="stop-color:#9BCEEE;stop-opacity:0.5143"/>
		<stop  offset="0.6653" style="stop-color:#C9E4F6;stop-opacity:0.2798"/>
		<stop  offset="0.7552" style="stop-color:#FCFEFF;stop-opacity:2.407700e-02"/>
		<stop  offset="0.7636" style="stop-color:#FFFFFF;stop-opacity:0"/>
	</linearGradient>
	<path class="st11" d="M173.1,2.5c-0.3,0.2,0.3,0.2,1.3,0.2c17-1.3,36.5,0.6,49.7,7.5c8.2,4.3,14.7,11,15.9,19.6
		c1.5,10.5-5.4,24.5-23.6,36.1c-2.6,1.7-4.8,3.7-4.8,4.7c0.2,2.7,0.3,5.6,0.1,8.7c0,1.3,3,0.8,6.5-1.3c12.3-7.4,20.7-15.7,25.8-23.8
		c4.8-7.7,6.5-15.1,5.8-21.5c-1.3-10.2-8.7-18.1-18-23.2c-14.5-7.9-35.8-10.1-53.9-8.9c-1.1,0.1-2.3,0.3-2.6,0.5
		C174.7,1.6,173.8,2.1,173.1,2.5z"/>
	<g>
		<path d="M80.4,47.4c0,5.8,3.9,9.8,9.8,9.8h9.8l-0.2,2.3h-9.6c-7.2,0-12.1-5-12.1-12.1V16.8h2.3V47.4z"/>
	</g>
	<path d="M18.5,17.2H5.7v2h2h10.8c10.6,0,16.7,6.8,16.7,18.9c0,11.9-6.3,19.1-16.7,19.1H7.7v-19l-2-3v24h12.8c11.7,0,19-7.9,19-21.1
		C37.5,24.8,30.4,17.2,18.5,17.2z"/>
	<path d="M169.1,57.2h-10.8c-10.6,0-16.7-6.8-16.7-18.9c0-11.9,6.3-19.1,16.7-19.1h10.8h2.5v-2h-13.3c-11.7,0-19,7.9-19,21.1
		c0,13.3,7.1,20.9,19,20.9h13.3v-2H169.1z"/>
	<g>
		<path d="M71.8,49.5h-2.4c-0.6,1.8-1.5,3.4-2.8,4.9l0,0c-3.2,3.2-7.9,5.7-14.8,2.8c-5.5-2.3-8.8-7.5-8.6-13.3l29.6-0.1
			c0.1-6.6-3.5-12.8-9.6-15.3c-8.1-3.4-17.5,0.9-21,9.4c-3.5,8.5,0.3,18,8.7,21.5c6.3,2.6,12,1.6,16.6-2.7l0,0c0,0,0.1-0.1,0.1-0.1
			c0.4-0.4,0.8-0.8,1.2-1.2l-0.1,0C70.1,53.7,71.1,51.7,71.8,49.5z M44.4,38.7c3.1-7.5,11.2-11.1,18-8.2c4.5,1.9,7.5,6.2,8,11.1
			l-26.9,0.1C43.8,40.6,44,39.6,44.4,38.7z"/>
	</g>
	<g>
		<path d="M134.1,49.5h-2.4c-0.6,1.8-1.5,3.4-2.8,4.9l0,0c-3.2,3.2-7.9,5.7-14.8,2.8c-5.5-2.3-8.8-7.5-8.6-13.3l29.6-0.1
			c0.1-6.6-3.5-12.8-9.6-15.3c-8.1-3.4-17.5,0.9-21,9.4c-3.5,8.5,0.3,18,8.7,21.5c6.3,2.6,12,1.6,16.6-2.7l0,0c0,0,0.1-0.1,0.1-0.1
			c0.4-0.4,0.8-0.8,1.2-1.2l-0.1,0C132.4,53.7,133.4,51.7,134.1,49.5z M106.7,38.7c3.1-7.5,11.2-11.1,18-8.2c4.5,1.9,7.5,6.2,8,11.1
			l-26.9,0.1C106,40.6,106.3,39.6,106.7,38.7z"/>
	</g>
	<g>
		<path d="M5.7,75H7v5.8H5.7V75z"/>
		<path d="M10.4,75h1.3l2.2,3.3c0.2,0.3,0.5,0.8,0.5,0.8h0c0,0,0-0.6,0-1V75h1.3v5.8h-1.3l-2.2-3.2c-0.2-0.3-0.5-0.8-0.5-0.8h0
			c0,0,0,0.6,0,1v3h-1.3V75z"/>
		<path d="M19,75h1.3l2.2,3.3c0.2,0.3,0.5,0.8,0.5,0.8h0c0,0,0-0.6,0-1V75h1.3v5.8H23l-2.2-3.2c-0.2-0.3-0.5-0.8-0.5-0.8h0
			c0,0,0,0.6,0,1v3H19V75z"/>
		<path d="M27.3,78c0-1.7,1.2-3,3.1-3c1.9,0,3.1,1.3,3.1,3s-1.2,3-3.1,3C28.5,81,27.3,79.7,27.3,78z M32.2,78c0-1.2-0.6-2.1-1.8-2.1
			c-1.2,0-1.8,0.9-1.8,2.1c0,1.2,0.6,2.1,1.8,2.1C31.6,80,32.2,79.1,32.2,78z"/>
		<path d="M35.8,75h1.4l1.1,3.4c0.1,0.4,0.3,0.9,0.3,0.9h0c0,0,0.2-0.6,0.3-0.9l1.1-3.4h1.3l-2.2,5.8H38L35.8,75z"/>
		<path d="M45.4,75h1.4l2.3,5.8h-1.4l-0.4-1.2h-2.3l-0.4,1.2h-1.3L45.4,75z M45.2,78.7h1.7L46.3,77c-0.1-0.3-0.3-0.9-0.3-0.9h0
			c0,0-0.2,0.6-0.3,0.9L45.2,78.7z"/>
		<path d="M51.3,78c0-1.7,1.2-3.1,3.1-3.1c1.6,0,2.5,0.9,2.7,2h-1.3c-0.1-0.6-0.6-1-1.4-1c-1.2,0-1.8,0.9-1.8,2.1c0,1.2,0.7,2,1.8,2
			c0.8,0,1.3-0.4,1.4-1h1.3c0,0.5-0.3,1-0.7,1.4c-0.4,0.4-1.1,0.6-2,0.6C52.6,81,51.3,79.7,51.3,78z"/>
		<path d="M60.1,75h1.3v5.8h-1.3V75z"/>
		<path d="M64.6,78c0-1.7,1.2-3,3.1-3c1.9,0,3.1,1.3,3.1,3s-1.2,3-3.1,3C65.8,81,64.6,79.7,64.6,78z M69.5,78c0-1.2-0.6-2.1-1.8-2.1
			c-1.2,0-1.8,0.9-1.8,2.1c0,1.2,0.6,2.1,1.8,2.1C68.9,80,69.5,79.1,69.5,78z M68.1,74.7h-1l0.4-1H69L68.1,74.7z"/>
		<path d="M73.9,75h1.3l2.2,3.3c0.2,0.3,0.5,0.8,0.5,0.8h0c0,0,0-0.6,0-1V75h1.3v5.8h-1.3l-2.2-3.2c-0.2-0.3-0.5-0.8-0.5-0.8h0
			c0,0,0,0.6,0,1v3h-1.3V75z"/>
		<path class="st12" d="M86,75h5.2v1h-1.9v4.8H88V76H86V75z"/>
		<path class="st12" d="M94.3,75H99v1h-3.5v1.3h3v1h-3v1.6h3.5v1h-4.8V75z"/>
		<path class="st12" d="M101.8,78c0-1.7,1.2-3.1,3.1-3.1c1.6,0,2.5,0.9,2.7,2h-1.3c-0.1-0.6-0.6-1-1.4-1c-1.2,0-1.8,0.9-1.8,2.1
			c0,1.2,0.7,2,1.8,2c0.8,0,1.3-0.4,1.4-1h1.3c0,0.5-0.3,1-0.7,1.4c-0.4,0.4-1.1,0.6-2,0.6C103.1,81,101.8,79.7,101.8,78z"/>
		<path class="st12" d="M110.7,75h1.3l2.2,3.3c0.2,0.3,0.5,0.8,0.5,0.8h0c0,0,0-0.6,0-1V75h1.3v5.8h-1.3l-2.2-3.2
			c-0.2-0.3-0.5-0.8-0.5-0.8h0c0,0,0,0.6,0,1v3h-1.3V75z"/>
		<path class="st12" d="M119,78c0-1.7,1.2-3,3.1-3c1.9,0,3.1,1.3,3.1,3s-1.2,3-3.1,3C120.2,81,119,79.7,119,78z M123.9,78
			c0-1.2-0.6-2.1-1.8-2.1c-1.2,0-1.8,0.9-1.8,2.1c0,1.2,0.6,2.1,1.8,2.1C123.3,80,123.9,79.1,123.9,78z"/>
		<path class="st12" d="M128.3,75h1.3v4.8h3v1h-4.4V75z"/>
		<path class="st12" d="M135.2,78c0-1.7,1.2-3,3.1-3c1.9,0,3.1,1.3,3.1,3s-1.2,3-3.1,3C136.4,81,135.2,79.7,135.2,78z M140.1,78
			c0-1.2-0.6-2.1-1.8-2.1c-1.2,0-1.8,0.9-1.8,2.1c0,1.2,0.6,2.1,1.8,2.1C139.5,80,140.1,79.1,140.1,78z M138.8,74.7h-1l0.4-1h1.4
			L138.8,74.7z"/>
		<path class="st12" d="M149.2,80.1L149.2,80.1c-0.5,0.7-1.1,0.9-1.8,0.9c-1,0-1.7-0.3-2.3-0.8c-0.5-0.5-0.8-1.3-0.8-2.2
			c0-1,0.4-1.8,1.1-2.4c0.5-0.4,1.2-0.7,2.1-0.7c1.6,0,2.6,0.8,2.8,1.9h-1.3c-0.1-0.6-0.6-1-1.5-1c-1.2,0-1.8,0.9-1.8,2.1
			c0,1.2,0.7,2.1,1.8,2.1c1,0,1.7-0.7,1.7-1.3v0h-1.6v-0.9h2.7v3.1h-1L149.2,80.1z"/>
		<path class="st12" d="M153.5,75h1.3v5.8h-1.3V75z"/>
		<path class="st12" d="M157.9,78c0-1.7,1.2-3.1,3.1-3.1c1.6,0,2.5,0.9,2.7,2h-1.3c-0.1-0.6-0.6-1-1.4-1c-1.2,0-1.8,0.9-1.8,2.1
			c0,1.2,0.7,2,1.8,2c0.8,0,1.3-0.4,1.4-1h1.3c0,0.5-0.3,1-0.7,1.4c-0.4,0.4-1.1,0.6-2,0.6C159.2,81,157.9,79.7,157.9,78z"/>
		<path class="st12" d="M168.4,75h1.4l2.3,5.8h-1.4l-0.4-1.2h-2.3l-0.4,1.2h-1.3L168.4,75z M168.2,78.7h1.7l-0.6-1.7
			c-0.1-0.3-0.3-0.9-0.3-0.9h0c0,0-0.2,0.6-0.3,0.9L168.2,78.7z"/>
	</g>
</g>
</svg>
